HIERARCHY
ROOT Hips
{
    OFFSET 0.000000 0.000000 0.000000
    CHANNELS 6 Xposition Yposition Zposition Zrotation Xrotation Yrotation
    JOINT Spine
    {
        OFFSET -0.000000 8.359812 0.000000
        CHANNELS 3 Zrotation Xrotation Yrotation
        JOINT Spine1
        {
            OFFSET -0.000000 28.141317 0.000000
            CHANNELS 3 Zrotation Xrotation Yrotation
            JOINT Neck
            {
                OFFSET -0.000000 28.025745 2.547795
                CHANNELS 3 Zrotation Xrotation Yrotation
                JOINT Head
                {
                    OFFSET -0.000000 14.272848 -2.038978
                    CHANNELS 3 Zrotation Xrotation Yrotation
                    End Site
                    {
                        OFFSET -0.000000 25.487228 0.000000
                    }
                }
            }
            JOINT LeftShoulder
            {
                OFFSET 4.059574 26.120710 -0.180480
                CHANNELS 3 Zrotation Xrotation Yrotation
                JOINT LeftArm
                {
                    OFFSET 11.584161 0.000000 0.000000
                    CHANNELS 3 Zrotation Xrotation Yrotation
                    JOINT LeftForeArm
                    {
                        OFFSET 30.766815 0.000000 0.000000
                        CHANNELS 3 Zrotation Xrotation Yrotation
                        JOINT LeftHand
                        {
                            OFFSET 29.436810 0.000000 0.000000
                            CHANNELS 3 Zrotation Xrotation Yrotation
                            End Site
                            {
                                OFFSET 15.292337 0.000000 0.000000
                            }
                        }
                    }
                }
            }
            JOINT RightShoulder
            {
                OFFSET -4.095355 26.120710 -0.180480
                CHANNELS 3 Zrotation Xrotation Yrotation
                JOINT RightArm
                {
                    OFFSET -11.584161 0.000000 0.000000
                    CHANNELS 3 Zrotation Xrotation Yrotation
                    JOINT RightForeArm
                    {
                        OFFSET -30.766815 0.000000 0.000000
                        CHANNELS 3 Zrotation Xrotation Yrotation
                        JOINT RightHand
                        {
                            OFFSET -29.436810 0.000000 0.000000
                            CHANNELS 3 Zrotation Xrotation Yrotation
                            End Site
                            {
                                OFFSET -15.292337 0.000000 0.000000
                            }
                        }
                    }
                }
            }
        }
    }
    JOINT LeftUpLeg
    {
        OFFSET 10.194892 0.000000 0.000000
        CHANNELS 3 Zrotation Xrotation Yrotation
        JOINT LeftLeg
        {
            OFFSET -0.000000 -32.520012 0.000000
            CHANNELS 3 Zrotation Xrotation Yrotation
            JOINT LeftFoot
            {
                OFFSET -0.000000 -49.106510 0.000000
                CHANNELS 3 Zrotation Xrotation Yrotation
                JOINT LeftToeBase
                {
                    OFFSET -0.000000 -6.626679 15.292337
                    CHANNELS 3 Zrotation Xrotation Yrotation
                    End Site
                    {
                        OFFSET -0.000000 0.000000 4.077957
                    }
                }
            }
        }
    }
    JOINT RightUpLeg
    {
        OFFSET -10.194892 0.000000 0.000000
        CHANNELS 3 Zrotation Xrotation Yrotation
        JOINT RightLeg
        {
            OFFSET -0.000000 -32.520012 0.000000
            CHANNELS 3 Zrotation Xrotation Yrotation
            JOINT RightFoot
            {
                OFFSET -0.000000 -49.106510 0.000000
                CHANNELS 3 Zrotation Xrotation Yrotation
                JOINT RightToeBase
                {
                    OFFSET -0.000000 -6.626679 15.292337
                    CHANNELS 3 Zrotation Xrotation Yrotation
                    End Site
                    {
                        OFFSET -0.000000 0.000000 4.077957
                    }
                }
            }
        }
    }
}
MOTION
Frames:    9
Frame Time:    0.008333
-88.214561    88.193840    63.308407    -2.983405    -0.283830    79.403542    3.169879    -7.807965    -0.150665    -1.013849    -0.631679    -0.372584    3.292130    34.029030    17.259474    -11.882449    -8.918765    16.008009    15.809734    -2.674582    0.294144    -8.514252    0.062584    2.002527    2.775505    -2.956743    2.331253    22.643705    -1.430236    7.899302    -15.470599    -1.279803    1.286603    13.453478    -3.518404    20.115860    -2.035401    2.325357    -3.477245    -22.116402    5.956619    -18.771992    3.605774    -1.427567    -4.305277    -4.316981    0.402610    -10.148791    2.178033    -2.528317    29.135305    0.000000    0.000000    0.000000    0.086274    1.784736    3.283374    4.490032    -0.734595    3.370976    -2.957255    -2.984999    -6.505117    0.000000    0.000000    0.000000    
-88.215500    88.195244    63.300240    -2.999660    -0.280862    79.434143    3.187045    -7.806327    -0.151403    -1.009806    -0.654886    -0.374638    3.255977    34.006168    17.415838    -11.945321    -8.947482    16.148241    15.790952    -2.686016    0.268436    -8.502703    0.053042    2.012296    2.783706    -2.917747    2.291172    22.580324    -1.397021    7.888861    -15.467166    -1.303276    1.328487    13.426891    -3.471571    20.096037    -2.044735    2.353419    -3.473669    -22.042376    5.957244    -18.699501    3.596985    -1.441317    -4.329110    -4.310177    0.377425    -10.049772    2.166167    -2.503324    29.029663    0.000000    0.000000    0.000000    0.076073    1.772076    3.263908    4.499069    -0.743161    3.350125    -2.940135    -2.977474    -6.493120    0.000000    0.000000    0.000000    
-88.214874    88.195770    63.294636    -3.005285    -0.273000    79.462852    3.185041    -7.792894    -0.147518    -0.998412    -0.688860    -0.370710    3.250766    33.958565    17.532351    -12.000618    -8.907408    16.260017    15.781155    -2.699208    0.238931    -8.510123    0.087583    1.994320    2.820678    -2.910361    2.287661    22.508656    -1.397788    7.877065    -15.444720    -1.294309    1.361947    13.387322    -3.432555    20.083549    -2.059912    2.336750    -3.475587    -22.172501    5.923034    -18.503422    3.586902    -1.453220    -4.337379    -4.309196    0.377021    -10.050565    2.138346    -2.501608    29.021730    0.000000    0.000000    0.000000    0.065421    1.775829    3.265929    4.498592    -0.758563    3.343234    -2.947259    -2.973858    -6.515750    0.000000    0.000000    0.000000    
-88.211136    88.198364    63.288792    -3.002735    -0.266988    79.488487    3.217036    -7.746248    -0.108411    -1.085757    -0.778115    -0.333598    3.437122    33.991253    17.594883    -12.160625    -8.907870    16.325773    15.852528    -2.679211    0.167878    -8.532197    0.078024    1.925995    2.854938    -2.896066    2.331045    22.640024    -1.395764    7.777944    -15.321581    -1.247193    1.330592    13.319510    -3.392896    20.061529    -2.081121    2.346896    -3.414603    -22.018917    5.900533    -18.467346    3.575266    -1.455532    -4.302489    -4.307603    0.378346    -10.052177    2.120566    -2.485843    28.962622    0.000000    0.000000    0.000000    0.052588    1.791187    3.259534    4.502205    -0.771360    3.343630    -2.915966    -2.970655    -6.537322    0.000000    0.000000    0.000000    
-88.211594    88.198257    63.282936    -3.008605    -0.268145    79.522850    3.224915    -7.728822    -0.103381    -1.080270    -0.818100    -0.329052    3.473010    33.992699    17.695620    -12.282210    -8.915020    16.411137    15.849895    -2.679053    0.118551    -8.546454    0.124982    1.926003    2.862838    -2.964443    2.293905    22.880486    -1.435393    7.832253    -15.304460    -1.231565    1.332298    13.304632    -3.377568    20.074316    -2.125053    2.295461    -3.365098    -21.934029    5.865386    -18.622215    3.572192    -1.468705    -4.299195    -4.307139    0.379765    -10.062374    2.114228    -2.487039    28.942095    0.000000    0.000000    0.000000    0.048613    1.790136    3.278350    4.506908    -0.772181    3.334644    -2.968552    -2.965100    -6.627757    0.000000    0.000000    0.000000    
-88.211609    88.197556    63.278534    -3.010326    -0.272073    79.552986    3.232049    -7.723578    -0.106684    -1.072402    -0.820040    -0.332559    3.477397    33.928970    17.816154    -12.356487    -8.884053    16.523342    15.849221    -2.672922    0.115980    -8.549766    0.141597    1.898941    2.911835    -2.935359    2.280261    22.522364    -1.437194    7.808259    -15.303925    -1.231767    1.355267    13.316357    -3.406502    20.077541    -2.128825    2.275892    -3.326312    -21.871510    5.828228    -18.583263    3.573313    -1.483571    -4.279199    -4.307823    0.390559    -10.055402    2.111947    -2.484320    28.880911    0.000000    0.000000    0.000000    0.055399    1.796981    3.270164    4.497465    -0.775013    3.374107    -2.953755    -2.970770    -6.640201    0.000000    0.000000    0.000000    
-88.210464    88.197083    63.272346    -3.009215    -0.263541    79.583939    3.239955    -7.710657    -0.109812    -1.092937    -0.844411    -0.336219    3.518730    33.971237    17.914272    -12.496053    -8.982754    16.594879    15.858465    -2.666988    0.091058    -8.547976    0.175081    1.899555    2.931670    -2.957453    2.253204    22.511576    -1.458691    7.813678    -15.278476    -1.235376    1.380617    13.317669    -3.397392    20.084137    -2.091124    2.087471    -3.265360    -22.351793    5.712514    -18.526121    3.555672    -1.490737    -4.270716    -4.303430    0.389795    -10.041765    2.102422    -2.469071    28.836393    0.000000    0.000000    0.000000    0.046117    1.810548    3.290650    4.492412    -0.794203    3.350201    -2.990677    -2.973541    -6.665692    0.000000    0.000000    0.000000    
-88.206696    88.197495    63.268288    -3.003561    -0.270839    79.611473    3.250344    -7.701487    -0.117909    -1.084789    -0.848632    -0.344929    3.508621    33.969261    18.012138    -12.584049    -9.041121    16.670506    15.853663    -2.675915    0.085820    -8.548648    0.216304    1.894718    2.953553    -2.985232    2.237250    22.488791    -1.494817    7.780275    -15.287836    -1.222213    1.409879    13.348359    -3.443601    20.098518    -2.103614    2.116539    -3.232535    -22.203690    5.702083    -18.453035    3.560755    -1.485295    -4.269975    -4.307224    0.391863    -10.057050    2.112437    -2.476926    28.822447    0.000000    0.000000    0.000000    0.053095    1.826620    3.297002    4.485428    -0.799318    3.341001    -2.958812    -2.977638    -6.689289    0.000000    0.000000    0.000000    
-88.205246    88.196381    63.263668    -2.998304    -0.268206    79.637627    3.260300    -7.684245    -0.116424    -1.108924    -0.872610    -0.343880    3.539754    33.984489    18.082861    -12.667233    -9.107322    16.725769    15.905898    -2.478120    0.174328    -8.590374    -0.031097    1.689746    2.989660    -2.990575    2.303826    22.502398    -1.518023    7.698344    -15.254216    -1.212797    1.425667    13.345268    -3.439563    20.104424    -2.099544    2.073273    -3.203065    -22.248722    5.661201    -18.423109    3.552639    -1.484051    -4.268055    -4.306380    0.386119    -10.039038    2.111856    -2.471498    28.774427    0.000000    0.000000    0.000000    0.050961    1.854046    3.344314    4.479642    -0.835871    3.248826    -2.967005    -2.974084    -6.678164    0.000000    0.000000    0.000000    
